<svg width="14" height="15" viewBox="0 0 14 15" fill="none" xmlns="http://www.w3.org/2000/svg">
<path d="M6.01562 0.15625C6.17839 0.0520833 6.26302 0 6.26953 0C6.27604 0 6.2793 0.166016 6.2793 0.498047C6.28581 0.823568 6.28906 1.26302 6.28906 1.81641C6.28906 2.36328 6.28906 2.95573 6.28906 3.59375C6.28906 5.29948 6.29232 6.32812 6.29883 6.67969C6.30534 7.02474 6.31836 7.19727 6.33789 7.19727C6.37044 7.19727 6.46484 7.17773 6.62109 7.13867C6.6276 7.13867 6.64388 7.13542 6.66992 7.12891C6.96289 7.07031 7.19076 7.02148 7.35352 6.98242L7.86133 6.875L7.87109 4.46289L7.88086 2.06055L8.10547 1.81641C8.25521 1.65365 8.4082 1.50716 8.56445 1.37695C8.68164 1.2793 8.84766 1.1556 9.0625 1.00586C9.28385 0.85612 9.40755 0.78125 9.43359 0.78125C9.43359 0.78125 9.43359 0.911458 9.43359 1.17188C9.4401 1.43229 9.44336 1.78385 9.44336 2.22656C9.44987 2.66927 9.45312 3.14779 9.45312 3.66211C9.45312 5.0293 9.45312 5.85286 9.45312 6.13281C9.45964 6.40625 9.47266 6.53971 9.49219 6.5332C9.59635 6.50716 10.5208 6.30859 12.2656 5.9375C12.3242 5.93099 12.4089 5.91471 12.5195 5.88867C12.8385 5.81706 13.0306 5.77474 13.0957 5.76172C13.2389 5.72917 13.3203 5.71289 13.3398 5.71289C13.3854 5.71289 13.3691 5.88867 13.291 6.24023C13.2129 6.5918 13.1217 6.89779 13.0176 7.1582C12.9655 7.27539 12.9297 7.34701 12.9102 7.37305C12.8971 7.39909 12.8711 7.41536 12.832 7.42188C12.8255 7.42188 12.8027 7.42839 12.7637 7.44141C12.5228 7.49349 12.3177 7.53581 12.1484 7.56836C10.4297 7.93294 9.54427 8.12174 9.49219 8.13477C9.47266 8.14128 9.45964 8.18685 9.45312 8.27148C9.45312 8.34961 9.45312 8.57422 9.45312 8.94531C9.45312 9.47917 9.45638 9.74609 9.46289 9.74609C9.47591 9.74609 9.57357 9.72656 9.75586 9.6875C9.82096 9.67448 9.95768 9.64518 10.166 9.59961C10.3288 9.56706 10.446 9.54427 10.5176 9.53125C10.8757 9.45312 11.7448 9.26758 13.125 8.97461C13.2747 8.94206 13.3529 8.92904 13.3594 8.93555C13.3659 9.03971 13.3268 9.27409 13.2422 9.63867C13.1706 9.95117 13.0762 10.2409 12.959 10.5078C12.9395 10.5664 12.9199 10.6022 12.9004 10.6152C12.8809 10.6283 12.8353 10.6413 12.7637 10.6543C12.653 10.6738 12.5521 10.6934 12.4609 10.7129C12.2266 10.765 11.9173 10.8301 11.5332 10.9082C11.2793 10.9668 10.8529 11.0579 10.2539 11.1816C9.40104 11.3639 8.81836 11.4876 8.50586 11.5527C8.11523 11.6374 7.91341 11.6797 7.90039 11.6797C7.88737 11.6797 7.8776 11.543 7.87109 11.2695C7.87109 10.9896 7.87109 10.5924 7.87109 10.0781L7.86133 8.47656L7.5293 8.54492C7.4707 8.55794 7.34375 8.58724 7.14844 8.63281C6.96615 8.67188 6.83594 8.69792 6.75781 8.71094L6.30859 8.80859L6.28906 9.81445C6.28255 10.4785 6.26628 10.8366 6.24023 10.8887C6.21419 10.9408 6.05143 11.1914 5.75195 11.6406C5.43945 12.1354 5.18555 12.4544 4.99023 12.5977C4.79492 12.7409 4.44661 12.8548 3.94531 12.9395C3.63281 13.0046 3.04036 13.1315 2.16797 13.3203C1.93359 13.3724 1.58203 13.4473 1.11328 13.5449C0.826823 13.6035 0.644531 13.6426 0.566406 13.6621C0.247396 13.7272 0.078125 13.763 0.0585938 13.7695C0.0195312 13.7826 0.0195312 13.6816 0.0585938 13.4668C0.0976562 13.2454 0.152995 13.0013 0.224609 12.7344C0.302734 12.4674 0.374349 12.2786 0.439453 12.168L0.488281 12.0703L1.76758 11.8066C1.85872 11.7871 1.99219 11.7578 2.16797 11.7188C3.86719 11.3607 4.72005 11.1816 4.72656 11.1816C4.73307 11.1816 4.73633 11.084 4.73633 10.8887C4.73633 10.6934 4.73633 10.4525 4.73633 10.166C4.73633 9.60612 4.73307 9.26758 4.72656 9.15039C4.69401 9.15039 4.39779 9.21224 3.83789 9.33594C3.68164 9.36849 3.43099 9.42057 3.08594 9.49219C2.96875 9.51823 2.72786 9.57031 2.36328 9.64844C2.0638 9.71354 1.85221 9.75911 1.72852 9.78516C1.25977 9.88281 0.970052 9.94141 0.859375 9.96094L0.761719 9.98047L0.771484 9.87305C0.86263 9.30013 0.996094 8.80534 1.17188 8.38867L1.23047 8.28125L1.66992 8.19336C1.98893 8.12826 2.4056 8.04036 2.91992 7.92969C3.20638 7.86458 3.45378 7.8125 3.66211 7.77344C3.85742 7.72786 4.11133 7.67253 4.42383 7.60742C4.62565 7.56836 4.72656 7.54883 4.72656 7.54883C4.73307 7.54883 4.73633 7.2526 4.73633 6.66016C4.73633 6.06771 4.73633 5.31901 4.73633 4.41406V1.2793L4.91211 1.08398C5.20508 0.751953 5.57292 0.442708 6.01562 0.15625ZM12.832 12.2461C13.0534 12.194 13.2227 12.1549 13.3398 12.1289C13.3724 12.1615 13.3529 12.347 13.2812 12.6855C13.2292 12.946 13.1576 13.1999 13.0664 13.4473C12.9818 13.6882 12.9167 13.8184 12.8711 13.8379C12.8385 13.8509 12.679 13.8867 12.3926 13.9453C11.9238 14.043 10.5924 14.3262 8.39844 14.7949C8.05339 14.8665 7.88086 14.8991 7.88086 14.8926C7.89388 14.7038 7.95247 14.3913 8.05664 13.9551C8.16081 13.61 8.2487 13.3724 8.32031 13.2422C8.33333 13.2161 8.5026 13.1673 8.82812 13.0957C9.16016 13.0241 10.127 12.819 11.7285 12.4805C11.9108 12.4414 12.2135 12.3763 12.6367 12.2852C12.7279 12.2656 12.793 12.2526 12.832 12.2461Z" fill="#000000"/>
</svg>
